<?xml version="1.0" encoding="utf-8"?>
<!-- Generator: Adobe Illustrator 27.2.0, SVG Export Plug-In . SVG Version: 6.00 Build 0)  -->
<svg version="1.1" id="Calque_1" xmlns="http://www.w3.org/2000/svg" xmlns:xlink="http://www.w3.org/1999/xlink" x="0px" y="0px"
	 viewBox="0 0 104 60" style="enable-background:new 0 0 104 60;" xml:space="preserve">
<style type="text/css">
	.st0{fill-rule:evenodd;clip-rule:evenodd;fill:#FFFFFF;}
</style>
<g id="page">
	<g id="D_x2F_Elem_x2F_menu_x2F_White_x2F_" transform="translate(-73.000000, -20.000000)">
		<g id="C_x2F_Logo_x2F_CP" transform="translate(73.000000, 20.000000)">
			<path id="Combined-Shape" class="st0" d="M7.3,42.9c1.6,0,3.1,1.1,4.1,1.1c0.5,0,0.7-0.2,0.7-0.7h0.4v5.2h-0.4
				c-0.4-2.3-2.3-5.3-4.8-5.3c-2.3,0-3.6,2.1-3.6,7.8c0,5.4,1,7.8,3.5,7.8c2.9,0,4.6-2.8,4.9-4.6l0.1-0.8h0.3v5.4h-0.3
				c-0.1-0.3-0.4-0.9-0.8-0.9c-0.7,0-1.7,1.3-4.4,1.3c-4.4,0-7.1-3.9-7.1-7.9C0,47.4,2.8,42.9,7.3,42.9z M21.5,42.9
				c4.2,0,7.1,3.8,7.1,8.2c0.1,4.2-3.1,8.2-7.1,8.2s-7.2-4-7.1-8.2C14.4,46.7,17.3,42.9,21.5,42.9z M67.9,42.9l6,15.6h0.8
				c0.7,0,1.3-0.2,1.3-1.6V45l-1-1.3h-0.7v-0.4H79L87.4,54h0v-9.1c0-0.8-0.5-1.3-1.5-1.3h-0.4v-0.4h10.9v0.4h-1.6l3.7,8.4l2.7-6
				c0.3-0.6,0.4-1.2,0.4-1.5c0-0.6-0.3-0.9-1.3-0.9h-0.3v-0.4h4v0.4h-0.2c-0.8,0-1.3,0.4-2,2.1l-3,6.8v6h1.7v0.4h-6.9v-0.4h1.7v-5
				L91,43.6h-1.6c-1,0-1.4,0.6-1.4,1.2v14.3H87L76.6,45.6h0V57c0,1.3,0.5,1.5,1.7,1.5h0.2v0.4H68.4v-0.4h1.8l-1.6-4.6h-4.3L63.1,57
				C63,57.2,63,57.4,63,57.7c0,0.7,0.6,0.8,1.1,0.8h0.6v0.4h-4v-0.4h0.3c0.8-0.1,1.3-0.6,1.5-1.3l5.2-14.3H67.9z M35,43.2L38.7,54h0
				l3.8-10.7h5.4v0.4h-1.7v14.9h1.7v0.4h-7.1v-0.4h1.9V44h0l-5.2,14.9h-0.6l-5.4-15.3l0,0.2v12.6c0,1.8,0.5,2.1,1.7,2.1h0.3v0.4
				h-4.3v-0.4h0.1c1.5,0,1.7-1,1.7-1.9V43.6h-1.7v-0.4H35z M57.2,43.2c3.9,0,5.7,1.4,5.7,4.2c0,2.7-2.6,4.4-6,4.4
				c-0.9,0-1.7,0-2.4-0.1v6.7h2.2v0.4h-7.5v-0.4h1.8V43.6h-1.8v-0.4H57.2z M21.6,43.3L21.6,43.3c-1.8,0-3.4,0.8-3.4,7.8
				c0,5.6,0.7,7.8,3.3,7.8s3.3-2.1,3.3-7.8C24.8,44.2,23.3,43.3,21.6,43.3z M66.4,47.8L66.4,47.8l-2,5.6h4L66.4,47.8z M56.3,43.6
				h-1.8v7.7c0.3,0.1,0.6,0.1,0.9,0.1c2.7,0,3.7-1.3,3.7-3.9C59.2,44.7,58.8,43.6,56.3,43.6z M31.9,0c3.8,0,7.5,2.7,9.7,2.7
				c1.1,0,1.7-0.5,1.8-1.6h1v12.6h-1C42.5,8.2,38,1,31.9,1c-5.4,0-8.6,5.1-8.6,18.6c0,12.9,2.3,18.6,8.4,18.6
				c6.9,0,10.9-6.8,11.6-11.1l0.3-1.8h0.8v13h-0.8c-0.2-0.8-0.9-2.2-2-2.2c-1.7,0-4.1,3-10.5,3c-10.6,0-16.9-9.4-16.9-18.9
				C14.3,10.7,21,0,31.9,0z M82.1,32.7c1.7,0,3.1,1.4,3.1,3.1c0,1.7-1.4,3.1-3.1,3.1S79,37.5,79,35.8C79,34.1,80.4,32.7,82.1,32.7z
				 M51.1,32.7c1.7,0,3.1,1.4,3.1,3.1c0,1.7-1.4,3.1-3.1,3.1S48,37.5,48,35.8C48,34.1,49.4,32.7,51.1,32.7z M75.9,0.9
				c9.3,0,13.7,3.5,13.7,10c0,6.4-6.3,10.6-14.4,10.6c-2.2,0-4.2-0.1-5.8-0.2v16.1h5.3v1H56.8v-1h4.3V1.8h-4.3v-1H75.9z M73.8,1.8
				h-4.3v18.5c0.6,0.2,1.5,0.3,2.2,0.3c6.3,0,8.9-3.1,8.9-9.4C80.6,4.4,79.6,1.8,73.8,1.8z"/>
		</g>
	</g>
</g>
</svg>
